<svg width="1810" height="1033" viewBox="0 0 1810 1033" fill="none" xmlns="http://www.w3.org/2000/svg">
<g clip-path="url(#clip0_1562_96)" filter="url(#filter0_b_1562_96)">
<rect width="1810" height="1033" fill="black"/>
<g filter="url(#filter1_i_1562_96)">
<rect x="-31" y="852" width="1589" height="181" rx="47" fill="url(#paint0_linear_1562_96)"/>
</g>
<g filter="url(#filter2_i_1562_96)">
<rect width="355.172" height="147.634" rx="47" transform="matrix(0.776357 -0.630293 0.6516 0.758563 1623.06 666.01)" fill="url(#paint1_linear_1562_96)"/>
</g>
<g filter="url(#filter3_i_1562_96)">
<rect width="919.822" height="147.634" rx="47" transform="matrix(0.776357 -0.630293 0.6516 0.758563 1121 611.271)" fill="url(#paint2_linear_1562_96)"/>
</g>
<g filter="url(#filter4_i_1562_96)">
<rect width="647.163" height="147.634" rx="47" transform="matrix(0.776357 -0.630293 0.6516 0.758563 1127.73 378.481)" fill="url(#paint3_linear_1562_96)"/>
</g>
<g filter="url(#filter5_i_1562_96)">
<rect width="640.65" height="147.634" rx="47" transform="matrix(0.776357 -0.630293 0.6516 0.758563 1383.44 633.134)" fill="url(#paint4_linear_1562_96)"/>
</g>
<g filter="url(#filter6_i_1562_96)">
<rect width="373.156" height="147.634" rx="47" transform="matrix(0.776357 -0.630293 0.6516 0.758563 1143.11 129.198)" fill="url(#paint5_linear_1562_96)"/>
</g>
<path d="M1167 146.854L1168.72 152.137L1169.05 153.174H1170.14H1175.7L1171.2 156.439L1170.32 157.08L1170.66 158.116L1172.38 163.399L1167.88 160.134L1167 159.493L1166.12 160.134L1161.62 163.399L1163.34 158.116L1163.68 157.08L1162.8 156.439L1158.3 153.174H1163.86H1164.95L1165.28 152.137L1167 146.854Z" stroke="white" stroke-opacity="0.7" stroke-width="3"/>
<circle cx="1187.5" cy="172.5" r="3" stroke="white" stroke-opacity="0.7"/>
<circle cx="1180.5" cy="167.5" r="3.5" fill="white" fill-opacity="0.7"/>
<path d="M1437 219.854L1438.72 225.137L1439.05 226.174H1440.14H1445.7L1441.2 229.439L1440.32 230.08L1440.66 231.116L1442.38 236.399L1437.88 233.134L1437 232.493L1436.12 233.134L1431.62 236.399L1433.34 231.116L1433.68 230.08L1432.8 229.439L1428.3 226.174H1433.86H1434.95L1435.28 225.137L1437 219.854Z" stroke="white" stroke-opacity="0.7" stroke-width="3"/>
<circle cx="1457.5" cy="245.5" r="3" stroke="white" stroke-opacity="0.7"/>
<circle cx="1450.5" cy="240.5" r="3.5" fill="white" fill-opacity="0.7"/>
<path d="M1016 387.854L1017.72 393.137L1018.05 394.174H1019.14H1024.7L1020.2 397.439L1019.32 398.08L1019.66 399.116L1021.38 404.399L1016.88 401.134L1016 400.493L1015.12 401.134L1010.62 404.399L1012.34 399.116L1012.68 398.08L1011.8 397.439L1007.3 394.174H1012.86H1013.95L1014.28 393.137L1016 387.854Z" stroke="white" stroke-opacity="0.7" stroke-width="3"/>
<circle cx="1036.5" cy="413.5" r="3" stroke="white" stroke-opacity="0.7"/>
<circle cx="1029.5" cy="408.5" r="3.5" fill="white" fill-opacity="0.7"/>
<path d="M1261 486.854L1262.72 492.137L1263.05 493.174H1264.14H1269.7L1265.2 496.439L1264.32 497.08L1264.66 498.116L1266.38 503.399L1261.88 500.134L1261 499.493L1260.12 500.134L1255.62 503.399L1257.34 498.116L1257.68 497.08L1256.8 496.439L1252.3 493.174H1257.86H1258.95L1259.28 492.137L1261 486.854Z" stroke="white" stroke-opacity="0.7" stroke-width="3"/>
<circle cx="1281.5" cy="512.5" r="3" stroke="white" stroke-opacity="0.7"/>
<circle cx="1274.5" cy="507.5" r="3.5" fill="white" fill-opacity="0.7"/>
<path d="M1510 474.854L1511.72 480.137L1512.05 481.174H1513.14H1518.7L1514.2 484.439L1513.32 485.08L1513.66 486.116L1515.38 491.399L1510.88 488.134L1510 487.493L1509.12 488.134L1504.62 491.399L1506.34 486.116L1506.68 485.08L1505.8 484.439L1501.3 481.174H1506.86H1507.95L1508.28 480.137L1510 474.854Z" stroke="white" stroke-opacity="0.7" stroke-width="3"/>
<circle cx="1530.5" cy="500.5" r="3" stroke="white" stroke-opacity="0.7"/>
<circle cx="1523.5" cy="495.5" r="3.5" fill="white" fill-opacity="0.7"/>
<path d="M1144 688.854L1145.72 694.137L1146.05 695.174H1147.14H1152.7L1148.2 698.439L1147.32 699.08L1147.66 700.116L1149.38 705.399L1144.88 702.134L1144 701.493L1143.12 702.134L1138.62 705.399L1140.34 700.116L1140.68 699.08L1139.8 698.439L1135.3 695.174H1140.86H1141.95L1142.28 694.137L1144 688.854Z" stroke="white" stroke-opacity="0.7" stroke-width="3"/>
<circle cx="1164.5" cy="714.5" r="3" stroke="white" stroke-opacity="0.7"/>
<circle cx="1157.5" cy="709.5" r="3.5" fill="white" fill-opacity="0.7"/>
<path d="M1714 139.854L1715.72 145.137L1716.05 146.174H1717.14H1722.7L1718.2 149.439L1717.32 150.08L1717.66 151.116L1719.38 156.399L1714.88 153.134L1714 152.493L1713.12 153.134L1708.62 156.399L1710.34 151.116L1710.68 150.08L1709.8 149.439L1705.3 146.174H1710.86H1711.95L1712.28 145.137L1714 139.854Z" stroke="white" stroke-opacity="0.7" stroke-width="3"/>
<circle cx="1734.5" cy="165.5" r="3" stroke="white" stroke-opacity="0.7"/>
<circle cx="1727.5" cy="160.5" r="3.5" fill="white" fill-opacity="0.7"/>
<path d="M1745 437.854L1746.72 443.137L1747.05 444.174H1748.14H1753.7L1749.2 447.439L1748.32 448.08L1748.66 449.116L1750.38 454.399L1745.88 451.134L1745 450.493L1744.12 451.134L1739.62 454.399L1741.34 449.116L1741.68 448.08L1740.8 447.439L1736.3 444.174H1741.86H1742.95L1743.28 443.137L1745 437.854Z" stroke="white" stroke-opacity="0.7" stroke-width="3"/>
<circle cx="1765.5" cy="463.5" r="3" stroke="white" stroke-opacity="0.7"/>
<circle cx="1758.5" cy="458.5" r="3.5" fill="white" fill-opacity="0.7"/>
<path d="M1502 699.854L1503.72 705.137L1504.05 706.174H1505.14H1510.7L1506.2 709.439L1505.32 710.08L1505.66 711.116L1507.38 716.399L1502.88 713.134L1502 712.493L1501.12 713.134L1496.62 716.399L1498.34 711.116L1498.68 710.08L1497.8 709.439L1493.3 706.174H1498.86H1499.95L1500.28 705.137L1502 699.854Z" stroke="white" stroke-opacity="0.7" stroke-width="3"/>
<circle cx="1522.5" cy="725.5" r="3" stroke="white" stroke-opacity="0.7"/>
<circle cx="1515.5" cy="720.5" r="3.5" fill="white" fill-opacity="0.7"/>
<path d="M1719 710.854L1720.72 716.137L1721.05 717.174H1722.14H1727.7L1723.2 720.439L1722.32 721.08L1722.66 722.116L1724.38 727.399L1719.88 724.134L1719 723.493L1718.12 724.134L1713.62 727.399L1715.34 722.116L1715.68 721.08L1714.8 720.439L1710.3 717.174H1715.86H1716.95L1717.28 716.137L1719 710.854Z" stroke="white" stroke-opacity="0.7" stroke-width="3"/>
<circle cx="1739.5" cy="736.5" r="3" stroke="white" stroke-opacity="0.7"/>
<circle cx="1732.5" cy="731.5" r="3.5" fill="white" fill-opacity="0.7"/>
<path d="M1606 926.854L1607.72 932.137L1608.05 933.174H1609.14H1614.7L1610.2 936.439L1609.32 937.08L1609.66 938.116L1611.38 943.399L1606.88 940.134L1606 939.493L1605.12 940.134L1600.62 943.399L1602.34 938.116L1602.68 937.08L1601.8 936.439L1597.3 933.174H1602.86H1603.95L1604.28 932.137L1606 926.854Z" stroke="white" stroke-opacity="0.7" stroke-width="3"/>
<circle cx="1626.5" cy="952.5" r="3" stroke="white" stroke-opacity="0.7"/>
<circle cx="1619.5" cy="947.5" r="3.5" fill="white" fill-opacity="0.7"/>
<path d="M951 31.8541L952.717 37.1373L953.053 38.1738H954.143H959.698L955.204 41.439L954.322 42.0795L954.659 43.116L956.376 48.3992L951.882 45.134L951 44.4934L950.118 45.134L945.624 48.3992L947.341 43.116L947.678 42.0795L946.796 41.439L942.302 38.1738H947.857H948.947L949.283 37.1373L951 31.8541Z" stroke="white" stroke-opacity="0.7" stroke-width="3"/>
<circle cx="971.5" cy="57.5" r="3" stroke="white" stroke-opacity="0.7"/>
<circle cx="964.5" cy="52.5" r="3.5" fill="white" fill-opacity="0.7"/>
<path d="M1282 921.854L1283.72 927.137L1284.05 928.174H1285.14H1290.7L1286.2 931.439L1285.32 932.08L1285.66 933.116L1287.38 938.399L1282.88 935.134L1282 934.493L1281.12 935.134L1276.62 938.399L1278.34 933.116L1278.68 932.08L1277.8 931.439L1273.3 928.174H1278.86H1279.95L1280.28 927.137L1282 921.854Z" stroke="white" stroke-opacity="0.7" stroke-width="3"/>
<circle cx="1302.5" cy="947.5" r="3" stroke="white" stroke-opacity="0.7"/>
<circle cx="1295.5" cy="942.5" r="3.5" fill="white" fill-opacity="0.7"/>
<path d="M1017 827.854L1018.72 833.137L1019.05 834.174H1020.14H1025.7L1021.2 837.439L1020.32 838.08L1020.66 839.116L1022.38 844.399L1017.88 841.134L1017 840.493L1016.12 841.134L1011.62 844.399L1013.34 839.116L1013.68 838.08L1012.8 837.439L1008.3 834.174H1013.86H1014.95L1015.28 833.137L1017 827.854Z" stroke="white" stroke-opacity="0.7" stroke-width="3"/>
<circle cx="1037.5" cy="853.5" r="3" stroke="white" stroke-opacity="0.7"/>
<circle cx="1030.5" cy="848.5" r="3.5" fill="white" fill-opacity="0.7"/>
</g>
<defs>
<filter id="filter0_b_1562_96" x="-20" y="-20" width="1850" height="1073" filterUnits="userSpaceOnUse" color-interpolation-filters="sRGB">
<feFlood flood-opacity="0" result="BackgroundImageFix"/>
<feGaussianBlur in="BackgroundImageFix" stdDeviation="10"/>
<feComposite in2="SourceAlpha" operator="in" result="effect1_backgroundBlur_1562_96"/>
<feBlend mode="normal" in="SourceGraphic" in2="effect1_backgroundBlur_1562_96" result="shape"/>
</filter>
<filter id="filter1_i_1562_96" x="-31" y="852" width="1599" height="191" filterUnits="userSpaceOnUse" color-interpolation-filters="sRGB">
<feFlood flood-opacity="0" result="BackgroundImageFix"/>
<feBlend mode="normal" in="SourceGraphic" in2="BackgroundImageFix" result="shape"/>
<feColorMatrix in="SourceAlpha" type="matrix" values="0 0 0 0 0 0 0 0 0 0 0 0 0 0 0 0 0 0 127 0" result="hardAlpha"/>
<feOffset dx="10" dy="10"/>
<feGaussianBlur stdDeviation="5"/>
<feComposite in2="hardAlpha" operator="arithmetic" k2="-1" k3="1"/>
<feColorMatrix type="matrix" values="0 0 0 0 0 0 0 0 0 0 0 0 0 0 0 0 0 0 0.8 0"/>
<feBlend mode="normal" in2="shape" result="effect1_innerShadow_1562_96"/>
</filter>
<filter id="filter2_i_1562_96" x="1642.54" y="461.069" width="342.988" height="308.01" filterUnits="userSpaceOnUse" color-interpolation-filters="sRGB">
<feFlood flood-opacity="0" result="BackgroundImageFix"/>
<feBlend mode="normal" in="SourceGraphic" in2="BackgroundImageFix" result="shape"/>
<feColorMatrix in="SourceAlpha" type="matrix" values="0 0 0 0 0 0 0 0 0 0 0 0 0 0 0 0 0 0 127 0" result="hardAlpha"/>
<feOffset dx="10" dy="10"/>
<feGaussianBlur stdDeviation="5"/>
<feComposite in2="hardAlpha" operator="arithmetic" k2="-1" k3="1"/>
<feColorMatrix type="matrix" values="0 0 0 0 0 0 0 0 0 0 0 0 0 0 0 0 0 0 0.8 0"/>
<feBlend mode="normal" in2="shape" result="effect1_innerShadow_1562_96"/>
</filter>
<filter id="filter3_i_1562_96" x="1140.47" y="50.4343" width="781.359" height="663.905" filterUnits="userSpaceOnUse" color-interpolation-filters="sRGB">
<feFlood flood-opacity="0" result="BackgroundImageFix"/>
<feBlend mode="normal" in="SourceGraphic" in2="BackgroundImageFix" result="shape"/>
<feColorMatrix in="SourceAlpha" type="matrix" values="0 0 0 0 0 0 0 0 0 0 0 0 0 0 0 0 0 0 127 0" result="hardAlpha"/>
<feOffset dx="10" dy="10"/>
<feGaussianBlur stdDeviation="5"/>
<feComposite in2="hardAlpha" operator="arithmetic" k2="-1" k3="1"/>
<feColorMatrix type="matrix" values="0 0 0 0 0 0 0 0 0 0 0 0 0 0 0 0 0 0 0.8 0"/>
<feBlend mode="normal" in2="shape" result="effect1_innerShadow_1562_96"/>
</filter>
<filter id="filter4_i_1562_96" x="1147.2" y="-10.4996" width="569.678" height="492.049" filterUnits="userSpaceOnUse" color-interpolation-filters="sRGB">
<feFlood flood-opacity="0" result="BackgroundImageFix"/>
<feBlend mode="normal" in="SourceGraphic" in2="BackgroundImageFix" result="shape"/>
<feColorMatrix in="SourceAlpha" type="matrix" values="0 0 0 0 0 0 0 0 0 0 0 0 0 0 0 0 0 0 127 0" result="hardAlpha"/>
<feOffset dx="10" dy="10"/>
<feGaussianBlur stdDeviation="5"/>
<feComposite in2="hardAlpha" operator="arithmetic" k2="-1" k3="1"/>
<feColorMatrix type="matrix" values="0 0 0 0 0 0 0 0 0 0 0 0 0 0 0 0 0 0 0.8 0"/>
<feBlend mode="normal" in2="shape" result="effect1_innerShadow_1562_96"/>
</filter>
<filter id="filter5_i_1562_96" x="1402.92" y="248.258" width="564.621" height="487.944" filterUnits="userSpaceOnUse" color-interpolation-filters="sRGB">
<feFlood flood-opacity="0" result="BackgroundImageFix"/>
<feBlend mode="normal" in="SourceGraphic" in2="BackgroundImageFix" result="shape"/>
<feColorMatrix in="SourceAlpha" type="matrix" values="0 0 0 0 0 0 0 0 0 0 0 0 0 0 0 0 0 0 127 0" result="hardAlpha"/>
<feOffset dx="10" dy="10"/>
<feGaussianBlur stdDeviation="5"/>
<feComposite in2="hardAlpha" operator="arithmetic" k2="-1" k3="1"/>
<feColorMatrix type="matrix" values="0 0 0 0 0 0 0 0 0 0 0 0 0 0 0 0 0 0 0.8 0"/>
<feBlend mode="normal" in2="shape" result="effect1_innerShadow_1562_96"/>
</filter>
<filter id="filter6_i_1562_96" x="1162.59" y="-87.0787" width="356.951" height="319.345" filterUnits="userSpaceOnUse" color-interpolation-filters="sRGB">
<feFlood flood-opacity="0" result="BackgroundImageFix"/>
<feBlend mode="normal" in="SourceGraphic" in2="BackgroundImageFix" result="shape"/>
<feColorMatrix in="SourceAlpha" type="matrix" values="0 0 0 0 0 0 0 0 0 0 0 0 0 0 0 0 0 0 127 0" result="hardAlpha"/>
<feOffset dx="10" dy="10"/>
<feGaussianBlur stdDeviation="5"/>
<feComposite in2="hardAlpha" operator="arithmetic" k2="-1" k3="1"/>
<feColorMatrix type="matrix" values="0 0 0 0 0 0 0 0 0 0 0 0 0 0 0 0 0 0 0.8 0"/>
<feBlend mode="normal" in2="shape" result="effect1_innerShadow_1562_96"/>
</filter>
<linearGradient id="paint0_linear_1562_96" x1="763.5" y1="852" x2="763.5" y2="1033" gradientUnits="userSpaceOnUse">
<stop stop-color="#009FE3"/>
<stop offset="1" stop-color="#EA00FF" stop-opacity="0"/>
</linearGradient>
<linearGradient id="paint1_linear_1562_96" x1="177.586" y1="0" x2="177.586" y2="147.634" gradientUnits="userSpaceOnUse">
<stop stop-color="#009FE3"/>
<stop offset="1" stop-color="#EA00FF" stop-opacity="0"/>
</linearGradient>
<linearGradient id="paint2_linear_1562_96" x1="459.911" y1="0" x2="459.911" y2="147.634" gradientUnits="userSpaceOnUse">
<stop stop-color="#009FE3"/>
<stop offset="1" stop-color="#EA00FF" stop-opacity="0"/>
</linearGradient>
<linearGradient id="paint3_linear_1562_96" x1="323.581" y1="0" x2="323.581" y2="147.634" gradientUnits="userSpaceOnUse">
<stop stop-color="#009FE3"/>
<stop offset="1" stop-color="#EA00FF" stop-opacity="0"/>
</linearGradient>
<linearGradient id="paint4_linear_1562_96" x1="320.325" y1="0" x2="320.325" y2="147.634" gradientUnits="userSpaceOnUse">
<stop stop-color="#009FE3"/>
<stop offset="1" stop-color="#EA00FF" stop-opacity="0"/>
</linearGradient>
<linearGradient id="paint5_linear_1562_96" x1="186.578" y1="0" x2="186.578" y2="147.634" gradientUnits="userSpaceOnUse">
<stop stop-color="#009FE3"/>
<stop offset="1" stop-color="#EA00FF" stop-opacity="0"/>
</linearGradient>
<clipPath id="clip0_1562_96">
<rect width="1810" height="1033" fill="white"/>
</clipPath>
</defs>
</svg>
