<svg width="529" height="467" viewBox="0 0 529 467" fill="none" xmlns="http://www.w3.org/2000/svg">
<path d="M430.833 389.328C412.249 395.702 382.476 398.208 347.876 397.36C313.293 396.511 273.943 392.313 236.238 385.312C198.53 378.311 162.486 368.509 134.508 356.463C120.518 350.439 108.561 343.861 99.4233 336.803C90.2811 329.741 83.998 322.226 81.2932 314.339C59.4128 250.538 101.899 178.032 176.396 152.484C250.893 126.935 328.935 158.105 350.816 221.906C356.347 238.034 368.802 255.015 383.144 271.779C390.32 280.167 397.98 288.514 405.498 296.684L406.464 297.734C413.65 305.541 420.68 313.179 427.018 320.541C433.64 328.233 439.496 335.612 443.976 342.55C448.458 349.494 451.542 355.966 452.651 361.847C453.757 367.711 452.9 372.974 449.513 377.559C446.113 382.163 440.119 386.143 430.833 389.328Z" stroke="url(#paint0_linear_0_1)"/>
<g filter="url(#filter0_f_0_1)">
<path d="M449.119 399.765C431.08 405.952 400.362 406.517 363.038 401.957C326.016 397.434 283.467 387.999 242.359 374.993C201.227 361.98 161.789 345.471 130.892 326.905C99.672 308.145 78.4484 288.039 71.7045 268.375C42.4989 183.215 80.4872 94.4471 154.545 69.0489C228.603 43.6507 313.074 90.4213 342.28 175.581C350.144 198.51 365.709 223 382.912 246.887C391.552 258.884 400.704 270.861 409.631 282.516L410.762 283.991C419.314 295.156 427.623 306.004 435.154 316.405C451.082 338.404 462.724 357.372 466.013 372.068C467.613 379.216 467.054 384.589 464.785 388.692C462.52 392.787 457.93 396.743 449.119 399.765Z" stroke="url(#paint1_linear_0_1)" stroke-width="13"/>
</g>
<defs>
<filter id="filter0_f_0_1" x="0.357422" y="0.625488" width="528.068" height="465.833" filterUnits="userSpaceOnUse" color-interpolation-filters="sRGB">
<feFlood flood-opacity="0" result="BackgroundImageFix"/>
<feBlend mode="normal" in="SourceGraphic" in2="BackgroundImageFix" result="shape"/>
<feGaussianBlur stdDeviation="27.5" result="effect1_foregroundBlur_0_1"/>
</filter>
<linearGradient id="paint0_linear_0_1" x1="351.289" y1="221.744" x2="80.8203" y2="314.501" gradientUnits="userSpaceOnUse">
<stop stop-color="#3300FF"/>
<stop offset="1" stop-color="#DB00FF"/>
</linearGradient>
<linearGradient id="paint1_linear_0_1" x1="348.429" y1="173.473" x2="65.5561" y2="270.484" gradientUnits="userSpaceOnUse">
<stop stop-color="#3300FF"/>
<stop offset="1" stop-color="#DB00FF"/>
</linearGradient>
</defs>
</svg>
